<svg width="37" height="37" viewBox="0 0 37 37" fill="none" xmlns="http://www.w3.org/2000/svg">
<path d="M30.1262 11.36C30.5168 10.9695 30.5168 10.3364 30.1262 9.94583L27.0542 6.87379C26.6637 6.48327 26.0305 6.48327 25.64 6.87379L18.5 14.0138L11.36 6.87379C10.9695 6.48327 10.3364 6.48327 9.94583 6.87379L6.87379 9.94583C6.48327 10.3364 6.48327 10.9695 6.87379 11.36L14.0138 18.5L6.87379 25.64C6.48327 26.0305 6.48327 26.6637 6.87379 27.0542L9.94583 30.1262C10.3364 30.5168 10.9695 30.5168 11.36 30.1262L18.5 22.9863L25.64 30.1262C26.0305 30.5168 26.6637 30.5168 27.0542 30.1262L30.1262 27.0542C30.5168 26.6637 30.5168 26.0305 30.1262 25.64L22.9863 18.5L30.1262 11.36Z" fill="url(#paint0_linear_748_6)"/>
<defs>
<linearGradient id="paint0_linear_748_6" x1="6.41902" y1="18.4718" x2="30.6441" y2="18.4718" gradientUnits="userSpaceOnUse">
<stop stop-color="#FF3081"/>
<stop offset="1" stop-color="#FF434F"/>
</linearGradient>
</defs>
</svg>
