<svg width="47" height="49" viewBox="0 0 47 49" fill="none" xmlns="http://www.w3.org/2000/svg">
<path d="M37.7958 36.5254C40.3808 32.2379 39.1667 26.5416 35.0346 23.8466C30.9221 21.1516 25.4583 22.4583 22.8733 26.7254C20.2883 31.0333 21.5417 36.75 25.6346 39.4041C28.5133 41.2825 32.1558 41.2825 35.0346 39.4041L41.125 45.7129L43.8471 42.875L37.7958 36.5254ZM33.8792 35.2595C31.96 37.2604 28.8658 37.24 26.9467 35.2595C25.0471 33.2587 25.0471 30.0329 26.9663 28.032C28.8658 26.0516 31.96 26.0516 33.8792 28.032C35.7592 30.0533 35.7396 33.2791 33.8204 35.2595H33.8792ZM37.2083 8.16663H9.79167C8.7529 8.16663 7.75668 8.59683 7.02216 9.36261C6.28765 10.1284 5.875 11.167 5.875 12.25V36.75C5.875 37.8329 6.28765 38.8715 7.02216 39.6373C7.75668 40.4031 8.7529 40.8333 9.79167 40.8333H21.1696C20.0729 39.6491 19.1917 38.2608 18.6042 36.75H9.79167V28.5833H17.9775C18.2908 27.1337 18.8196 25.7454 19.5833 24.5H9.79167V16.3333H21.5417V22.0704C22.6775 20.927 24.0092 20.0083 25.4583 19.3958V16.3333H37.2083V20.4166C37.9917 20.927 38.7163 21.5395 39.3625 22.2133C40.0283 22.9075 40.6158 23.6629 41.125 24.5V12.25C41.125 11.167 40.7124 10.1284 39.9778 9.36261C39.2433 8.59683 38.2471 8.16663 37.2083 8.16663Z" fill="white"/>
</svg>
