<svg width="37" height="37" viewBox="0 0 37 37" fill="none" xmlns="http://www.w3.org/2000/svg">
<path d="M20.8125 32.375H10.25C9.69774 32.375 9.25002 31.9273 9.25002 31.375V27.2083C9.25002 26.656 9.69774 26.2083 10.25 26.2083H20.8125C23.7879 26.2083 26.2084 23.7879 26.2084 20.8125C26.2084 17.8371 23.7879 15.4166 20.8125 15.4166H16.9584V19.4091C16.9584 20.2634 15.9562 20.7244 15.3076 20.1683L7.05249 13.0926C6.58687 12.6935 6.58687 11.9732 7.05249 11.5741L15.3076 4.49828C15.9562 3.94227 16.9584 4.40318 16.9584 5.25753V9.24998H20.8125C27.195 9.24998 32.375 14.43 32.375 20.8125C32.375 27.195 27.195 32.375 20.8125 32.375Z" fill="url(#paint0_linear_748_4)"/>
<defs>
<linearGradient id="paint0_linear_748_4" x1="6.43479" y1="17.6956" x2="32.1739" y2="17.6956" gradientUnits="userSpaceOnUse">
<stop stop-color="#F9B22D"/>
<stop offset="1" stop-color="#FED661"/>
</linearGradient>
</defs>
</svg>
